<?xml version="1.0" standalone="no"?>
<!DOCTYPE svg PUBLIC "-//W3C//DTD SVG 20010904//EN"
 "http://www.w3.org/TR/2001/REC-SVG-20010904/DTD/svg10.dtd">
<svg version="1.0" xmlns="http://www.w3.org/2000/svg"
 width="512.000000pt" height="512.000000pt" viewBox="0 0 512.000000 512.000000"
 preserveAspectRatio="xMidYMid meet">

<g transform="translate(0.000000,512.000000) scale(0.100000,-0.100000)"
fill="#000000" stroke="none">
<path d="M2415 5114 c-902 -60 -1692 -566 -2113 -1354 -282 -527 -368 -1166
-236 -1760 214 -961 973 -1720 1934 -1934 365 -81 755 -81 1120 0 879 196
1596 850 1873 1710 137 427 159 902 61 1344 -214 961 -973 1720 -1934 1934
-209 46 -516 72 -705 60z m-558 -1658 l28 -24 3 -629 c2 -459 -1 -635 -9 -656
-23 -56 -31 -57 -307 -57 l-254 0 -29 29 -29 29 0 635 0 635 26 31 26 31 258
0 259 0 28 -24z m1612 9 c70 -35 128 -141 147 -265 4 -30 20 -64 50 -103 58
-78 85 -153 91 -257 4 -63 10 -90 24 -105 45 -50 63 -168 40 -268 -7 -31 -5
-48 11 -83 27 -61 34 -142 17 -201 -18 -67 -103 -151 -184 -184 -58 -23 -69
-24 -388 -27 l-329 -3 5 -22 c35 -143 34 -443 -2 -544 -78 -217 -291 -376
-398 -297 -44 33 -52 72 -52 261 -1 169 -1 172 -36 273 -106 303 -242 496
-404 572 l-71 33 0 535 0 536 53 50 c121 116 94 113 805 113 504 1 597 -1 621
-14z"/>
</g>
</svg>
